<svg width="30" height="32" viewBox="0 0 30 32" fill="none" xmlns="http://www.w3.org/2000/svg">
<path d="M15 0.666687C6.72 0.666687 0 7.56589 0 16.0667C0 24.5675 6.72 31.4667 15 31.4667C23.28 31.4667 30 24.5675 30 16.0667C30 7.56589 23.28 0.666687 15 0.666687ZM15 5.28669C17.49 5.28669 19.5 7.35029 19.5 9.90669C19.5 12.4631 17.49 14.5267 15 14.5267C12.51 14.5267 10.5 12.4631 10.5 9.90669C10.5 7.35029 12.51 5.28669 15 5.28669ZM15 27.1547C13.2178 27.1547 11.4633 26.7019 9.89292 25.8367C8.32256 24.9714 6.98517 23.7207 6 22.1959C6.045 19.1313 12 17.4527 15 17.4527C17.985 17.4527 23.955 19.1313 24 22.1959C23.0148 23.7207 21.6774 24.9714 20.1071 25.8367C18.5367 26.7019 16.7822 27.1547 15 27.1547Z" fill="#C4C4C4"/>
</svg>
